<svg width="64" height="74" viewBox="0 0 64 74" fill="none" xmlns="http://www.w3.org/2000/svg">
<path d="M62.4767 7.2813C65.7499 27.5301 63.5545 41.2338 57.8464 51.3377C52.1782 61.4825 43.117 67.9867 32.5789 73.8363C32.2197 74.0817 31.7806 74.0408 31.4213 73.8363C20.9231 67.9458 11.8221 61.4825 6.15386 51.3377C0.485647 41.2338 -1.7497 27.5301 1.52349 7.2813C1.60332 6.83133 1.88274 6.50408 2.28191 6.34045C6.79253 4.21331 11.7422 2.65886 16.6919 1.59529C21.9211 0.490812 27.23 -0.0409735 32.0201 -6.68769e-05C36.8101 -0.0409735 42.0792 0.490812 47.3482 1.59529C52.2979 2.65886 57.2476 4.25422 61.7981 6.34045C62.1973 6.54499 62.4368 6.91315 62.4767 7.2813Z" fill="#DF2935"/>
<path d="M55.7306 50.1106C61.0795 40.5793 63.1951 27.612 60.1614 8.38586C56.01 6.46325 51.4196 5.03152 46.8291 4.04976C41.7198 2.98619 36.6104 2.45441 32.0199 2.53622H31.98C27.3896 2.45441 22.2802 2.98619 17.1708 4.04976C12.5804 5.03152 8.02983 6.46325 3.83855 8.38586C0.844776 27.612 2.96038 40.5793 8.26933 50.1106C13.5783 59.56 22.1205 65.7369 32.0199 71.3002C41.9194 65.7369 50.4217 59.56 55.7306 50.1106Z" fill="#003366"/>
<path fill-rule="evenodd" clip-rule="evenodd" d="M16.5721 18.4897L18.8074 25.6075H26.1122L20.2045 29.9845L22.4798 37.1022L16.5721 32.6843L10.6644 37.1022L12.9396 29.9845L7.03192 25.6075H14.3367L16.5721 18.4897Z" fill="#FDCA40"/>
<path fill-rule="evenodd" clip-rule="evenodd" d="M32.02 6.995L34.2553 14.1127H41.5601L35.6524 18.4897L37.8878 25.6075L32.02 21.1896L26.1122 25.6075L28.3875 18.4897L22.4798 14.1127H29.7846L32.02 6.995Z" fill="#FDCA40"/>
<path fill-rule="evenodd" clip-rule="evenodd" d="M47.4279 18.4897L49.7032 25.6075H56.9681L51.0604 29.9845L53.3356 37.1022L47.4279 32.6843L41.5601 37.1022L43.8354 29.9845L37.8878 25.6075H45.1926L47.4279 18.4897Z" fill="#FDCA40"/>
<path fill-rule="evenodd" clip-rule="evenodd" d="M41.5601 37.1022L43.7955 44.22L51.1003 44.1791L45.1926 48.597L47.4279 55.6738L41.5601 51.2968L35.6524 55.6738L37.9277 48.597L32.02 44.1791L39.3248 44.22L41.5601 37.1022Z" fill="#FDCA40"/>
<path fill-rule="evenodd" clip-rule="evenodd" d="M22.4798 37.1022L24.7151 44.22L32.02 44.1791L26.1122 48.597L28.3476 55.6738L22.4798 51.2968L16.5721 55.6738L18.8474 48.597L12.9396 44.1791L20.2444 44.22L22.4798 37.1022Z" fill="#FDCA40"/>
</svg>
